<svg xmlns="http://www.w3.org/2000/svg" viewBox="0 0 800 800" role="img">
  <defs>
    <linearGradient id="bg" x1="0" y1="0" x2="1" y2="1">
      <stop offset="0" stop-color="#EFEFF6"/><stop offset="1" stop-color="#DEDEEC"/>
    </linearGradient>
  </defs>
  <rect width="800" height="800" fill="url(#bg)"/>
  <path d="M400 320 C 400 250, 390 210, 370 160" stroke="#7A5C3E" stroke-width="14" fill="none" stroke-linecap="round"/>
  <path d="M370 200 C 300 150, 250 160, 210 200 C 250 240, 330 245, 370 200 Z" fill="#6E9440" stroke="#587935" stroke-width="4"/>
  <path d="M375 195 C 430 130, 500 125, 555 160 C 520 215, 430 235, 375 195 Z" fill="#7FA84A" stroke="#587935" stroke-width="4"/>
  <path d="M368 190 C 340 170, 330 150, 335 120" stroke="#587935" stroke-width="5" fill="none"/>
  <circle cx="308.3" cy="338.1" r="44.2" fill="#5A5A8C" stroke="#42426E" stroke-width="3"/><circle cx="295.0" cy="322.6" r="9.7" fill="#FFFFFF" opacity="0.35"/>
  <circle cx="361.9" cy="335.1" r="45.0" fill="#5A5A8C" stroke="#42426E" stroke-width="3"/><circle cx="348.4" cy="319.3" r="9.9" fill="#FFFFFF" opacity="0.35"/>
  <circle cx="438.1" cy="321.5" r="41.9" fill="#5A5A8C" stroke="#42426E" stroke-width="3"/><circle cx="425.6" cy="306.8" r="9.2" fill="#FFFFFF" opacity="0.35"/>
  <circle cx="485.4" cy="332.6" r="43.2" fill="#5A5A8C" stroke="#42426E" stroke-width="3"/><circle cx="472.5" cy="317.5" r="9.5" fill="#FFFFFF" opacity="0.35"/>
  <circle cx="268.4" cy="404.3" r="42.7" fill="#5A5A8C" stroke="#42426E" stroke-width="3"/><circle cx="255.6" cy="389.3" r="9.4" fill="#FFFFFF" opacity="0.35"/>
  <circle cx="345.9" cy="394.5" r="44.6" fill="#5A5A8C" stroke="#42426E" stroke-width="3"/><circle cx="332.5" cy="378.8" r="9.8" fill="#FFFFFF" opacity="0.35"/>
  <circle cx="396.3" cy="391.0" r="43.2" fill="#5A5A8C" stroke="#42426E" stroke-width="3"/><circle cx="383.3" cy="375.9" r="9.5" fill="#FFFFFF" opacity="0.35"/>
  <circle cx="456.1" cy="395.7" r="46.2" fill="#5A5A8C" stroke="#42426E" stroke-width="3"/><circle cx="442.2" cy="379.5" r="10.2" fill="#FFFFFF" opacity="0.35"/>
  <circle cx="522.3" cy="399.8" r="46.4" fill="#5A5A8C" stroke="#42426E" stroke-width="3"/><circle cx="508.4" cy="383.6" r="10.2" fill="#FFFFFF" opacity="0.35"/>
  <circle cx="314.9" cy="458.0" r="44.5" fill="#5A5A8C" stroke="#42426E" stroke-width="3"/><circle cx="301.6" cy="442.4" r="9.8" fill="#FFFFFF" opacity="0.35"/>
  <circle cx="367.3" cy="460.6" r="41.7" fill="#5A5A8C" stroke="#42426E" stroke-width="3"/><circle cx="354.8" cy="446.0" r="9.2" fill="#FFFFFF" opacity="0.35"/>
  <circle cx="424.7" cy="463.3" r="40.5" fill="#5A5A8C" stroke="#42426E" stroke-width="3"/><circle cx="412.6" cy="449.1" r="8.9" fill="#FFFFFF" opacity="0.35"/>
  <circle cx="495.3" cy="462.5" r="46.5" fill="#5A5A8C" stroke="#42426E" stroke-width="3"/><circle cx="481.3" cy="446.2" r="10.2" fill="#FFFFFF" opacity="0.35"/>
  <circle cx="339.8" cy="537.7" r="46.1" fill="#5A5A8C" stroke="#42426E" stroke-width="3"/><circle cx="325.9" cy="521.6" r="10.1" fill="#FFFFFF" opacity="0.35"/>
  <circle cx="401.0" cy="530.4" r="41.3" fill="#5A5A8C" stroke="#42426E" stroke-width="3"/><circle cx="388.6" cy="516.0" r="9.1" fill="#FFFFFF" opacity="0.35"/>
  <circle cx="463.5" cy="525.0" r="45.9" fill="#5A5A8C" stroke="#42426E" stroke-width="3"/><circle cx="449.8" cy="508.9" r="10.1" fill="#FFFFFF" opacity="0.35"/>
  <circle cx="363.2" cy="603.8" r="44.5" fill="#5A5A8C" stroke="#42426E" stroke-width="3"/><circle cx="349.9" cy="588.2" r="9.8" fill="#FFFFFF" opacity="0.35"/>
  <circle cx="437.9" cy="597.2" r="41.7" fill="#5A5A8C" stroke="#42426E" stroke-width="3"/><circle cx="425.4" cy="582.6" r="9.2" fill="#FFFFFF" opacity="0.35"/>
  <circle cx="398.3" cy="663.2" r="43.8" fill="#5A5A8C" stroke="#42426E" stroke-width="3"/><circle cx="385.2" cy="647.9" r="9.6" fill="#FFFFFF" opacity="0.35"/>
</svg>
